<svg width="24" height="25" viewBox="0 0 24 25" fill="none" xmlns="http://www.w3.org/2000/svg">
<mask id="mask0_57_492" style="mask-type:alpha" maskUnits="userSpaceOnUse" x="0" y="0" width="24" height="25">
<g clip-path="url(#clip0_57_492)">
<path d="M18.9183 14.9863C18.4491 14.4799 17.8831 14.2091 17.2832 14.2091C16.6882 14.2091 16.1174 14.4749 15.6288 14.9813L14.1002 16.5607C13.9744 16.4905 13.8486 16.4253 13.7277 16.3601C13.5535 16.2699 13.3891 16.1846 13.2488 16.0944C11.8169 15.1518 10.5156 13.9234 9.26751 12.3339C8.66282 11.5417 8.25647 10.8749 7.96138 10.198C8.35806 9.82198 8.72571 9.43089 9.08368 9.05485C9.21913 8.91446 9.35458 8.76905 9.49003 8.62866C10.5059 7.57574 10.5059 6.21196 9.49003 5.15904L8.1694 3.79024C8.01943 3.63481 7.86463 3.47436 7.71951 3.31392C7.42926 3.00306 7.1245 2.68217 6.81006 2.38133C6.34082 1.9 5.77967 1.64429 5.1895 1.64429C4.59932 1.64429 4.0285 1.9 3.54475 2.38133C3.53991 2.38635 3.53991 2.38635 3.53507 2.39136L1.89032 4.11113C1.27112 4.75291 0.917984 5.53508 0.840584 6.4426C0.724484 7.90666 1.14051 9.27045 1.45978 10.1629C2.24346 12.354 3.41413 14.3846 5.16047 16.5607C7.2793 19.1829 9.82866 21.2537 12.7408 22.7127C13.8535 23.2593 15.3386 23.9061 16.9978 24.0164C17.0994 24.0214 17.2058 24.0264 17.3026 24.0264C18.4201 24.0264 19.3585 23.6102 20.0938 22.7829C20.0987 22.7729 20.1083 22.7679 20.1132 22.7579C20.3647 22.442 20.655 22.1562 20.9597 21.8503C21.1678 21.6448 21.3806 21.4292 21.5886 21.2036C22.0675 20.6871 22.3191 20.0855 22.3191 19.4687C22.3191 18.847 22.0627 18.2504 21.5741 17.749L18.9183 14.9863ZM20.6501 20.266C20.6453 20.266 20.6453 20.271 20.6501 20.266C20.4615 20.4765 20.268 20.6671 20.06 20.8777C19.7455 21.1885 19.4263 21.5144 19.1263 21.8804C18.6377 22.4219 18.0621 22.6776 17.3074 22.6776C17.2349 22.6776 17.1575 22.6776 17.0849 22.6726C15.6482 22.5774 14.313 21.9958 13.3117 21.4994C10.5736 20.1256 8.1694 18.1752 6.17151 15.7033C4.52192 13.6426 3.41897 11.7373 2.68851 9.69162C2.23862 8.44315 2.07415 7.47045 2.14671 6.55291C2.19508 5.96628 2.41277 5.47993 2.81428 5.06377L4.46387 3.35403C4.70091 3.12339 4.95246 2.99804 5.19917 2.99804C5.50393 2.99804 5.75065 3.18857 5.90545 3.34902C5.91028 3.35403 5.91512 3.35905 5.91996 3.36406C6.21505 3.64985 6.49562 3.94567 6.79071 4.26155C6.94067 4.42199 7.09547 4.58244 7.25027 4.7479L8.57091 6.1167C9.08368 6.64817 9.08368 7.13953 8.57091 7.67101C8.43062 7.81641 8.29517 7.96181 8.15488 8.1022C7.74853 8.5334 7.36153 8.93451 6.94067 9.3256C6.931 9.33563 6.92132 9.34064 6.91648 9.35067C6.50046 9.78187 6.57786 10.203 6.66493 10.4888C6.66977 10.5039 6.67461 10.5189 6.67945 10.534C7.02291 11.3963 7.50666 12.2086 8.24196 13.1763L8.2468 13.1813C9.58195 14.886 10.9897 16.2147 12.5425 17.2325C12.7408 17.3629 12.944 17.4682 13.1375 17.5685C13.3117 17.6587 13.4761 17.744 13.6164 17.8342C13.6358 17.8442 13.6551 17.8593 13.6745 17.8693C13.8389 17.9545 13.9937 17.9947 14.1534 17.9947C14.5549 17.9947 14.8064 17.7339 14.8887 17.6487L16.5431 15.9339C16.7076 15.7635 16.9688 15.5579 17.2736 15.5579C17.5735 15.5579 17.8202 15.7534 17.9702 15.9239C17.975 15.9289 17.975 15.9289 17.9798 15.9339L20.6453 18.6966C21.1436 19.208 21.1436 19.7345 20.6501 20.266Z" fill="black"/>
<path d="M13.1906 5.92113C14.4581 6.14174 15.6094 6.76347 16.5285 7.71611C17.4476 8.66875 18.0426 9.86207 18.2603 11.1757C18.3135 11.5066 18.5893 11.7373 18.9037 11.7373C18.9424 11.7373 18.9763 11.7323 19.015 11.7272C19.373 11.6671 19.61 11.3161 19.5519 10.9451C19.2907 9.35566 18.5651 7.90664 17.4573 6.75845C16.3495 5.61027 14.9515 4.85818 13.418 4.58743C13.06 4.52726 12.7262 4.77295 12.6633 5.13896C12.6005 5.50498 12.8327 5.86096 13.1906 5.92113Z" fill="black"/>
<path d="M23.6977 10.7496C23.2671 8.13237 22.0771 5.75076 20.2485 3.8555C18.42 1.96024 16.1222 0.726821 13.597 0.280583C13.2439 0.215402 12.9101 0.466098 12.8472 0.832113C12.7891 1.20314 13.0262 1.5491 13.3841 1.61428C15.6384 2.01038 17.6944 3.11846 19.3294 4.80815C20.9645 6.50285 22.0287 8.63376 22.4109 10.9702C22.4641 11.3012 22.7399 11.5318 23.0543 11.5318C23.093 11.5318 23.1269 11.5268 23.1656 11.5218C23.5187 11.4666 23.7606 11.1156 23.6977 10.7496Z" fill="black"/>
</g>
</mask>
<g mask="url(#mask0_57_492)">
<rect x="-8.22534" y="-83.9556" width="129.882" height="124.54" fill="white"/>
</g>
<defs>
<clipPath id="clip0_57_492">
<rect width="22.9204" height="23.7562" fill="white" transform="translate(0.803955 0.270264)"/>
</clipPath>
</defs>
</svg>
