<svg width="89" height="72" viewBox="0 0 89 72" fill="none" xmlns="http://www.w3.org/2000/svg">
<rect x="2.083" width="45.7712" height="45.7712" transform="matrix(0.694333 -0.719654 0.694333 0.719654 0.989243 37.4878)" stroke="#FF7400" stroke-width="3"/>
<rect x="2.083" width="45.7712" height="45.7712" transform="matrix(0.694333 -0.719654 0.694333 0.719654 20.9202 37.4878)" stroke="#FF7400" stroke-width="3"/>
<path d="M39.5603 24.7893H45.3367C47.808 24.7893 49.6785 25.1363 50.948 25.8303C52.2175 26.5243 52.8523 27.7431 52.8523 29.4866C52.8523 30.189 52.738 30.8238 52.5095 31.3909C52.2895 31.9579 51.9679 32.4234 51.5447 32.7874C51.1215 33.1513 50.6052 33.3883 49.9958 33.4983V33.6252C50.6137 33.7522 51.1723 33.9722 51.6716 34.2854C52.171 34.5901 52.5688 35.0387 52.865 35.6311C53.1697 36.2151 53.322 36.9937 53.322 37.967C53.322 39.0927 53.047 40.0575 52.4968 40.8616C51.9467 41.6656 51.1596 42.2834 50.1355 42.7151C49.1199 43.1383 47.9096 43.3499 46.5046 43.3499H39.5603V24.7893ZM43.4958 32.1399H45.781C46.9236 32.1399 47.7149 31.9622 48.155 31.6067C48.5951 31.2428 48.8152 30.7096 48.8152 30.0071C48.8152 29.2961 48.5528 28.7883 48.0281 28.4836C47.5118 28.1705 46.6908 28.0139 45.5652 28.0139H43.4958V32.1399ZM43.4958 35.2629V40.0999H46.0603C47.2452 40.0999 48.0704 39.8713 48.5359 39.4143C49.0014 38.9573 49.2341 38.3437 49.2341 37.5735C49.2341 37.1165 49.1326 36.7144 48.9294 36.3674C48.7263 36.0204 48.3835 35.7496 47.9011 35.5549C47.4272 35.3603 46.7712 35.2629 45.9333 35.2629H43.4958Z" fill="#FF7400"/>
</svg>
